<svg height="654" width="720" xmlns="http://www.w3.org/2000/svg">
<rect height="654" fill="#555" width="720"></rect>
<text fill="#7f7" font-family="Courier New" font-size="12" xml:space="preserve">
<tspan x="10" y="26">3 megabytes installed</tspan>
<tspan x="10" y="42"></tspan>
<tspan x="10" y="58">node_modules</tspan>
<tspan x="10" y="74">└─┬ vue-socket.io@2.1.1-a </tspan>
<tspan x="10" y="90">  └─┬ socket.io-client@1.7.3 </tspan>
<tspan x="10" y="106">    ├── backo2@1.0.2 </tspan>
<tspan x="10" y="122">    ├── component-bind@1.0.0 </tspan>
<tspan x="10" y="138">    ├── component-emitter@1.2.1 </tspan>
<tspan x="10" y="154">    ├─┬ debug@2.3.3 </tspan>
<tspan x="10" y="170">    │ └── ms@0.7.2 </tspan>
<tspan x="10" y="186">    ├─┬ engine.io-client@1.8.3 </tspan>
<tspan x="10" y="202">    │ ├── component-inherit@0.0.3 </tspan>
<tspan x="10" y="218">    │ ├─┬ engine.io-parser@1.3.2 </tspan>
<tspan x="10" y="234">    │ │ ├── after@0.8.2 </tspan>
<tspan x="10" y="250">    │ │ ├── arraybuffer.slice@0.0.6 </tspan>
<tspan x="10" y="266">    │ │ ├── base64-arraybuffer@0.1.5 </tspan>
<tspan x="10" y="282">    │ │ ├── blob@0.0.4 </tspan>
<tspan x="10" y="298">    │ │ └── wtf-8@1.0.0 </tspan>
<tspan x="10" y="314">    │ ├── has-cors@1.1.0 </tspan>
<tspan x="10" y="330">    │ ├── parsejson@0.0.3 </tspan>
<tspan x="10" y="346">    │ ├── parseqs@0.0.5 </tspan>
<tspan x="10" y="362">    │ ├─┬ ws@1.1.2 </tspan>
<tspan x="10" y="378">    │ │ ├── options@0.0.6 </tspan>
<tspan x="10" y="394">    │ │ └── ultron@1.0.2 </tspan>
<tspan x="10" y="410">    │ ├── xmlhttprequest-ssl@1.5.3 </tspan>
<tspan x="10" y="426">    │ └── yeast@0.1.2 </tspan>
<tspan x="10" y="442">    ├─┬ has-binary@0.1.7 </tspan>
<tspan x="10" y="458">    │ └── isarray@0.0.1 </tspan>
<tspan x="10" y="474">    ├── indexof@0.0.1 </tspan>
<tspan x="10" y="490">    ├── object-component@0.0.3 </tspan>
<tspan x="10" y="506">    ├─┬ parseuri@0.0.5 </tspan>
<tspan x="10" y="522">    │ └─┬ better-assert@1.0.2 </tspan>
<tspan x="10" y="538">    │   └── callsite@1.0.0 </tspan>
<tspan x="10" y="554">    ├─┬ socket.io-parser@2.3.1 </tspan>
<tspan x="10" y="570">    │ ├── component-emitter@1.1.2 </tspan>
<tspan x="10" y="586">    │ ├─┬ debug@2.2.0 </tspan>
<tspan x="10" y="602">    │ │ └── ms@0.7.1 </tspan>
<tspan x="10" y="618">    │ └── json3@3.3.2 </tspan>
<tspan x="10" y="634">    └── to-array@0.1.4</tspan>
</text>
</svg>
